<svg width="24" height="24" viewBox="0 0 24 24" fill="none" xmlns="http://www.w3.org/2000/svg">
<path d="M12.6744 2.52854C13.1954 2.51907 13.6889 2.70755 14.0573 3.06842C14.4276 3.41792 14.6256 3.90192 14.6256 4.41339C14.6256 5.45527 15.4875 6.29919 16.5588 6.29919C16.8893 6.29919 17.2208 6.20353 17.5154 6.04251C18.4332 5.54904 19.5793 5.86255 20.1002 6.74341L20.7452 7.85159C20.9062 8.13574 21 8.45778 21 8.78928C21 9.46177 20.6316 10.0878 20.0348 10.4184C19.7403 10.5794 19.494 10.8257 19.3245 11.1108C18.8215 12.0002 19.135 13.1263 20.0348 13.6397C20.9432 14.1597 21.2557 15.2972 20.7452 16.1961L20.1002 17.2673C19.7592 17.8536 19.1246 18.2145 18.4427 18.2145C18.1017 18.2145 17.7607 18.1283 17.4775 17.9578C17.1735 17.7968 16.8429 17.7021 16.5105 17.7021C15.999 17.7021 15.5065 17.9019 15.1475 18.2609C14.7771 18.6123 14.5782 19.0944 14.5782 19.5964C14.5782 20.6288 13.7173 21.4718 12.646 21.4718H11.3494C10.8369 21.4718 10.3539 21.2634 10.0034 20.913C9.64352 20.553 9.45504 20.0795 9.45504 19.5869C9.45504 18.5451 8.60164 17.7021 7.5323 17.7021C7.1809 17.7021 6.83992 17.7968 6.5463 17.9777C6.10113 18.223 5.57072 18.2893 5.0782 18.1662C4.58567 18.0336 4.15945 17.7116 3.90372 17.2853L3.29848 16.215C3.01338 15.7708 2.92814 15.2395 3.06169 14.7375C3.19334 14.2355 3.53527 13.8092 3.99843 13.5535C4.293 13.3925 4.53831 13.1557 4.7088 12.8621C5.20228 11.9718 4.88876 10.8541 3.99843 10.3332C3.09863 9.82169 2.78606 8.69457 3.29848 7.80423L3.90372 6.74341C4.15945 6.29919 4.58567 5.97621 5.08767 5.84361C5.59061 5.711 6.12008 5.78583 6.56524 6.04251C6.86833 6.20353 7.19984 6.28877 7.5323 6.28877C8.04376 6.28877 8.53534 6.08987 8.89526 5.73942C9.25518 5.38897 9.45504 4.90592 9.45504 4.41339C9.45504 3.37151 10.316 2.52854 11.3863 2.52854H12.6744ZM13.0543 9.61426C12.0597 9.20603 10.9127 9.42388 10.1455 10.1721C9.38779 10.9109 9.151 12.0381 9.56775 13.0051C9.97598 13.9797 10.9411 14.6143 12.0209 14.6143H12.0313C12.7417 14.6238 13.4047 14.3501 13.9058 13.8566C14.4078 13.3736 14.6919 12.7105 14.6919 12.0191C14.7014 10.9678 14.0478 10.0111 13.0543 9.61426Z" fill="#424242"/>
</svg>
